<?xml version="1.0" encoding="UTF-8" standalone="no"?>
<!-- Created with Inkscape (http://www.inkscape.org/) -->

<svg
   width="189.8634mm"
   height="86.047012mm"
   viewBox="0 0 189.8634 86.047012"
   version="1.1"
   id="svg5"
   xmlns="http://www.w3.org/2000/svg"
   xmlns:svg="http://www.w3.org/2000/svg">
  <defs
     id="defs2">
    <linearGradient
       id="linearGradient94575">
      <stop
         style="stop-color:#50f5f9;stop-opacity:1;"
         offset="0"
         id="stop94573" />
    </linearGradient>
  </defs>
  <g
     id="layer2"
     style="display:inline"
     transform="translate(-10.00059,-35.613357)">
    <path
       style="display:inline;fill:#ffffff;fill-opacity:1;stroke:none;stroke-width:0.05;stroke-linecap:butt;stroke-linejoin:miter;stroke-miterlimit:4;stroke-dasharray:none;stroke-opacity:1"
       d="m 31.018836,66.768536 h -9.952092 c -0.190447,0 -0.169705,0.49544 0,0.502153 1.528086,0.08535 2.997172,1.280732 2.997492,2.913877 l 0.0033,16.824604 c -0.08046,1.19284 -1.490701,1.718405 -2.715872,1.70868 -1.225171,-0.0097 -2.615774,-0.5057 -2.769061,-1.70868 l -4.2e-5,-19.55636 c -10e-7,-0.391494 -0.317239,-0.684914 -0.821262,-0.684271 -2.174064,0.0028 -3.893635,-7.53e-4 -6.057046,0 -0.996059,3.47e-4 -1.683944,-1.453663 -1.703257,-2.44739 -0.02047,-1.053329 0.735873,-2.662007 1.703257,-2.66237 6.501583,-0.0024 13.004014,-0.0482 19.314583,0 1.050539,0.008 1.663215,0.84637 1.663215,2.59623 0,1.69375 -0.608276,2.516108 -1.663215,2.51353 z"
       id="path636-6" />
    <path
       id="path636"
       style="display:inline;fill:#ffffff;fill-opacity:1;stroke:none;stroke-width:0.0499999;stroke-linecap:butt;stroke-linejoin:miter;stroke-miterlimit:4;stroke-dasharray:none;stroke-opacity:1"
       d="m 101.54599,94.535077 c -1.677113,-0.01598 -3.364974,0.662213 -3.363114,1.780252 0.01312,7.874781 0.02326,23.589261 0.02326,23.589261 0.153289,1.20298 1.582921,1.74545 2.808104,1.75545 1.22517,0.01 2.63571,-0.5161 2.71612,-1.70894 0,0 10e-4,2.48356 5.2e-4,0 -5.2e-4,-1.96921 0.004,-10.2129 -0.004,-15.86312 2.27277,3.16263 4.45985,6.53655 6.85591,9.49245 0.46349,0.57184 1.76074,0.57688 2.20348,0.01 2.37345,-3.03983 6.5899,-9.53181 6.62441,-9.58494 l 0.0522,15.94579 c 5.3e-4,1.21272 1.54364,1.69894 2.76882,1.70895 1.22518,0.01 2.63572,-0.5161 2.71612,-1.70895 h 5.3e-4 c -0.002,-8.39201 0.004,-21.386843 0.008,-23.63628 0.004,-2.073701 -5.27942,-2.444115 -6.29884,-0.509013 -2.5e-4,5.29e-4 -2.6e-4,0.0011 -5.3e-4,0.0016 l -6.94117,10.230863 -7.17631,-10.26242 c 0,0 -0.002,5.3e-4 -0.002,5.3e-4 -0.55208,-0.848763 -1.76895,-1.229612 -2.99206,-1.241267 z" />
    <path
       id="path636-8"
       style="display:inline;fill:#ffffff;fill-opacity:1;stroke:none;stroke-width:0.0499999;stroke-linecap:butt;stroke-linejoin:miter;stroke-miterlimit:4;stroke-dasharray:none;stroke-opacity:1"
       d="m 167.27445,94.42912 c -1.1528,-0.01072 -2.46949,0.453271 -2.68925,1.501717 -0.0114,0.04103 -0.0215,0.0827 -0.0289,0.125574 1.4e-4,-0.179956 0.002,-1.91471 -5.3e-4,0.0026 -0.0125,0.07325 -0.0191,0.149264 -0.0191,0.227893 l 0.015,15.313786 c -2.14,-2.96788 -4.68068,-6.41264 -6.83056,-9.07341 -2.31199,-3.237601 -4.38022,-5.885247 -5.04465,-6.838334 l -0.002,5.29e-4 c -0.55209,-0.848762 -1.76895,-1.229614 -2.99206,-1.241269 -0.56711,-0.0054 -1.13019,0.07456 -1.63401,0.218075 -0.69953,0.159015 -1.28798,0.480333 -1.55391,0.968418 -0.11243,0.180601 -0.17554,0.378848 -0.17519,0.593762 0.0131,7.874779 0.0233,23.589249 0.0233,23.589249 0.0304,0.23842 0.1124,0.44965 0.23151,0.63717 0.43619,0.77718 1.49769,1.1097 2.57659,1.11828 0.12365,0.001 0.25211,-0.006 0.38241,-0.0181 0.084,-0.007 0.16682,-0.0181 0.25062,-0.03 0.0173,-0.003 0.0344,-0.005 0.0517,-0.008 0.88728,-0.13697 1.72485,-0.55477 1.96422,-1.31103 0.009,-0.0274 0.0169,-0.0554 0.0243,-0.0837 0.005,-0.0216 0.0111,-0.043 0.0155,-0.0651 0.0121,-0.058 0.0206,-0.11776 0.0253,-0.17932 2.6e-4,-0.005 0.002,-0.009 0.002,-0.0134 0,0 0.001,2.48356 5.3e-4,0 -1e-5,-0.0511 1e-5,-0.35243 0,-0.41186 0.003,-5.38198 0.0831,-10.29888 0.13901,-15.25437 2.31387,3.21346 9.44049,12.91115 12.04268,16.17989 0.50346,0.77969 1.48952,1.16309 2.66185,1.17564 h 5.3e-4 c 0.0472,5.3e-4 0.0939,-0.005 0.14108,-0.006 0.16253,0.0156 0.32739,0.024 0.49247,0.0253 1.09989,0.009 2.55547,-0.44462 2.70578,-1.56941 0.0158,-0.0736 0.0259,-0.14892 0.0259,-0.22686 -0.004,-7.87479 0.004,-23.589253 0.004,-23.589253 -0.0121,-0.0961 -0.0349,-0.186647 -0.0625,-0.274402 -0.0142,-0.04936 -0.0308,-0.09751 -0.0506,-0.144176 -2.7e-4,-5.3e-4 -2.5e-4,-0.0013 -5.3e-4,-0.0021 -5.3e-4,-0.0013 -0.002,-0.0024 -0.002,-0.0036 -0.0233,-0.05388 -0.0497,-0.106315 -0.0801,-0.15658 -5.3e-4,-7.94e-4 -0.001,-0.0019 -0.002,-0.0026 -0.46132,-0.796933 -1.60303,-1.165725 -2.60862,-1.17512 z" />
    <path
       id="path92221"
       style="fill:#ffffff;fill-opacity:1;stroke:none;stroke-width:0.264583px;stroke-linecap:butt;stroke-linejoin:miter;stroke-opacity:1"
       d="m 62.066842,61.565235 c -1.216436,0 -2.011247,1.296029 -2.011247,1.787488 0,7.994559 0.04651,23.562902 0.04651,23.562902 0,0.916614 0.712311,1.717725 2.011246,1.717725 h 9.30796 c 6.819812,-0.870815 8.257084,-4.713536 8.418607,-8.699727 -0.455512,-3.908637 -2.125366,-5.126355 -4.162536,-5.940206 6.261081,-3.981876 2.37177,-11.96564 -4.44314,-12.428182 z m 3.580143,5.903515 c -0.04018,-0.257442 -0.0526,-0.838131 0.595294,-0.791191 0,0 2.769782,-0.129053 4.140851,0.03051 3.633821,0.42291 4.295206,5.563349 -0.05878,5.986198 h -3.321375 c -0.682247,0.07667 -1.131975,0.695224 -1.231559,1.289489 -0.0056,0.03324 -0.126598,0.03528 -0.124428,2.65e-4 z m 4.915826,9.377921 c 5.284303,0.529164 4.181655,6.764343 0.177403,6.728589 l -3.704167,-0.03307 c -0.69071,0.03753 -1.181285,0.744927 -1.266589,1.344965 -0.0098,0.06921 -0.122473,0.0668 -0.122473,0.0043 v -7.251237 c -0.0058,-0.46549 0.150608,-0.725893 0.59536,-0.795483 z" />
    <path
       id="path636-1"
       style="display:inline;fill:#ffffff;fill-opacity:1;stroke:none;stroke-width:0.0499999;stroke-linecap:butt;stroke-linejoin:miter;stroke-miterlimit:4;stroke-dasharray:none;stroke-opacity:1"
       d="m 86.602344,61.544564 c -1.385607,-0.0072 -2.760908,0.572818 -2.739885,1.761649 0.0132,7.87478 -0.03983,22.664306 -0.01138,23.571687 0.02846,0.90738 0.773269,1.755449 1.872753,1.755449 0.01042,0 0.02294,-0.0011 0.03359,-0.0011 l -5.29e-4,0.0011 h 13.423471 c 2.825016,3e-6 2.753546,-5.051372 0,-5.051372 h -9.7839 c 0.0066,-5.254403 0.02537,-16.434617 0.0083,-20.275764 -0.02109,-1.160142 -1.416804,-1.754465 -2.802414,-1.761649 z" />
    <path
       style="fill:#ffffff;fill-opacity:1;stroke:none;stroke-width:0.264583px;stroke-linecap:butt;stroke-linejoin:miter;stroke-opacity:1"
       d="m 104.67611,63.235969 v 23.71349 c 0,1.068244 0.62403,1.682876 1.29592,1.683802 4.9471,0.0068 13.26197,0 13.85756,0 2.01421,0 2.01424,-5.0514 -0.13967,-5.0514 h -6.43691 c -1.85371,-2e-6 -2.69319,1.56103 -3.00963,2.303531 -0.0472,0.08979 -0.23151,0.07728 -0.23151,-0.04033 l -1e-5,-1.029578 -3e-5,-7.11037 c 0,-0.591003 0.56579,-0.856963 0.83819,-0.857016 l 7.24969,-0.0014 c 2.04713,-3.99e-4 2.05705,-4.533176 -0.0604,-4.561462 l -4.75809,-0.06356 c -1.86563,0.151393 -2.47732,1.136119 -3.03784,2.103207 -0.0372,0.106572 -0.2265,0.09429 -0.23151,-0.0041 l -3e-5,-7.019715 c 0,-0.405326 0.27705,-0.626026 0.69511,-0.626026 h 8.90041 c 2.11936,-0.329948 2.4606,-4.464442 -0.0108,-5.122821 l -13.33007,0.01306 c -0.81632,8e-4 -1.59035,0.601149 -1.59035,1.670745 z"
       id="path110250" />
    <path
       id="path65529-3"
       style="display:inline;opacity:1;fill:#ffffff;fill-opacity:1;stroke:none;stroke-width:0.264583px;stroke-linecap:butt;stroke-linejoin:miter;stroke-opacity:1"
       d="m 80.971226,94.536244 c -1.934067,0.009 -2.689836,1.121505 -2.806547,1.403533 0,0 -8.88715,21.504733 -9.05061,22.076693 -0.140075,0.47841 -0.425481,1.04863 -0.303858,1.84743 0.258189,1.69572 3.841806,2.89005 5.144905,0.0935 2.028865,-4.59883 2.039154,-4.52169 2.039154,-4.52169 0.05266,-0.1116 0.165397,-0.32069 0.369364,-0.36615 l 7.643553,-0.01 c 1.477494,-0.002 1.541658,-1.48139 1.541658,-1.48139 0.0016,-0.0253 0.04616,-0.0238 0.05465,-0.002 1.709285,4.30198 1.725475,4.30081 2.547136,6.43101 1.032417,2.67659 5.021558,1.63991 5.308203,-0.11989 0.123195,-0.75634 -0.02484,-1.27805 -0.303859,-1.94097 -3.216687,-7.64228 -8.815551,-21.555002 -9.190653,-22.006413 -0.3751,-0.451413 -0.897187,-1.376045 -2.900082,-1.403016 -0.0313,-5.3e-4 -0.06232,-5.3e-4 -0.09302,-5.3e-4 z m 0.10387,6.347926 3.520649,8.94695 h -7.062597 z" />
    <path
       style="fill:#ffffff;fill-opacity:1;stroke:none;stroke-width:0.264583px;stroke-linecap:butt;stroke-linejoin:miter;stroke-opacity:1"
       d="m 63.656918,106.84314 c 1.272331,0.30728 1.768298,1.6283 1.768298,2.1169 v 7.73989 c 0,3.6365 -3.732729,4.9322 -8.508387,4.9322 -9.190516,0.0211 -15.229438,-5.40027 -15.219443,-14.12749 -0.01877,-8.186376 7.022483,-12.942539 14.294977,-12.95479 3.556258,-0.006 6.823527,1.004145 8.109796,2.327227 1.619899,1.755179 -0.105977,4.314063 -2.249979,3.863953 -12.606152,-5.818593 -19.624884,8.13605 -10.526368,14.52996 2.712517,2.02203 8.740381,2.29549 8.834797,-0.29704 0.03284,-1.71926 -0.011,-3.44276 0.004,-5.13615 -5.5e-5,-0.0192 -0.05584,-0.005 -0.106377,-0.007 -0.170006,-0.009 -0.318281,0.29992 -0.58688,0.65994 -0.425648,0.4771 -0.622207,1.00271 -1.753052,1.21488 -4.171198,0.13769 -3.372017,-5.05648 -0.396982,-4.87884 l 6.335498,0.0165 z"
       id="path141508" />
    <path
       style="display:inline;fill:#ffffff;fill-opacity:1;stroke:none;stroke-width:0.264583px;stroke-linecap:butt;stroke-linejoin:miter;stroke-opacity:1"
       d="m 198.09568,106.84314 c 1.27233,0.30728 1.7683,1.6283 1.7683,2.1169 v 7.73989 c 0,3.6365 -3.73273,4.9322 -8.50839,4.9322 -9.19052,0.0211 -15.22944,-5.40027 -15.21944,-14.12749 -0.0188,-8.186384 7.02248,-12.942547 14.29497,-12.954798 3.55626,-0.006 6.82353,1.004145 8.1098,2.327227 1.6199,1.755179 -0.10598,4.314061 -2.24998,3.863951 -12.60615,-5.818591 -19.62488,8.13606 -10.52637,14.52997 2.71252,2.02203 8.74038,2.29549 8.8348,-0.29704 0.0328,-1.71926 -0.011,-3.44276 0.004,-5.13615 -6e-5,-0.0192 -0.0558,-0.005 -0.10638,-0.007 -0.17,-0.009 -0.31828,0.29992 -0.58688,0.65994 -0.42565,0.4771 -0.62221,1.00271 -1.75305,1.21488 -4.1712,0.13769 -3.37202,-5.05648 -0.39698,-4.87884 l 6.3355,0.0165 z"
       id="path141508-1" />
    <path
       id="path636-1-2"
       style="display:inline;fill:#ffffff;fill-opacity:1;stroke:none;stroke-width:0.0499999;stroke-linecap:butt;stroke-linejoin:miter;stroke-miterlimit:4;stroke-dasharray:none;stroke-opacity:1"
       d="m 182.80566,61.555931 c -1.42416,-0.0013 -2.83788,0.584705 -2.81688,1.773536 0.0132,7.874781 -0.0512,22.678776 -0.0227,23.586157 -0.0272,2.268119 5.67714,2.332421 5.71955,0 -1e-5,-2.015514 0,-5.264465 0,-8.113199 l 5.15162,-0.02842 c 10.77857,0.329142 13.12042,-15.687405 0.0331,-17.197916 l -7.72563,-0.0072 c -0.11271,-0.0075 -0.22569,-0.01281 -0.33899,-0.01291 z m 2.87993,5.119068 h 5.18469 c 4.59366,0.397616 4.91171,6.782226 -0.16536,7.309115 -3.14257,0.134707 -4.38995,0.895149 -4.80488,1.993677 -0.0163,0.133977 -0.20678,0.130215 -0.21445,0.01035 -1e-5,-3.396581 0,-6.251668 0,-9.313127 z" />
    <path
       id="path176741"
       style="mix-blend-mode:screen;fill:#ffffff;fill-opacity:1;stroke:none;stroke-width:0.275483px;stroke-linecap:butt;stroke-linejoin:miter;stroke-opacity:1"
       d="m 130.69902,50.135905 c -2.29602,0.561489 -1.51161,3.290821 0,3.264327 l 1.63223,-4.4e-5 c 0.49433,0 0.49433,0.54605 0.49433,0.54605 v 7.329301 c 0,0 2.2e-4,0.547485 -0.4941,0.547485 -2.35004,-0.0073 -2.49219,0.0014 -5.38707,-3e-6 -1.17235,0 -1.2215,0.620446 -1.11631,1.620688 -1.66055,1.99325 -1.34432,5.283942 -0.5679,6.703485 0.0894,0.214728 0.34845,0.109588 0.39083,0.01768 1.52964,-2.958534 2.73476,-3.889875 5.04798,-3.889875 h 1.63224 c 0.49433,0 0.49433,0.376167 0.49433,0.376167 l -1.55704,46.748544 c 1.06271,4.53624 4.47468,8.17762 4.47468,8.17762 0,0 3.31852,-3.65748 4.41788,-8.17762 l -1.60187,-46.748544 c 0,-0.376167 0.50251,-0.376167 0.50251,-0.376167 h 1.65659 c 3.48164,0.480001 3.58165,1.450402 4.78509,3.871061 0.0781,0.134953 0.26452,0.183786 0.36277,0 0.84564,-1.297234 1.05657,-5.586916 -0.52591,-6.701341 -0.0179,-0.01982 0.45133,-1.474622 -1.02881,-1.621701 l -5.24973,8.3e-5 c -0.50251,0 -0.50251,-0.547483 -0.50251,-0.547483 l 2.8e-4,-7.315515 c 0,-5e-6 -2.8e-4,-0.559923 0.5022,-0.559918 h 1.65659 c 1.38921,0.0057 2.20794,-2.776869 0,-3.264209 -3.7117,-0.951497 -7.5157,-0.441379 -10.01931,-7.4e-5 z" />
    <g
       id="g89739"
       style="opacity:1;fill:#000000;fill-opacity:1"
       transform="translate(1.4967094,0.37417734)">
      <path
         style="fill:#00a7af;fill-opacity:1;stroke:none;stroke-width:0.264583px;stroke-linecap:butt;stroke-linejoin:miter;stroke-opacity:1"
         d="m 163.16988,84.239819 c -0.0687,-9.4e-4 -0.14938,0.0076 -0.24443,0.02635 l -9.93893,1.683617 c -0.62558,0.105238 -0.2796,0.165161 -0.0238,0.222208 3.76127,0.830583 8.89086,1.885074 11.56467,2.420525 0.2689,0.07403 0.36656,-0.02352 0.29248,-0.292489 -0.343,-1.204383 -0.75723,-2.374837 -1.19269,-3.613216 -0.0824,-0.264644 -0.15946,-0.442934 -0.45733,-0.447 z"
         id="path304512" />
      <path
         style="fill:#167390;fill-opacity:1;stroke:none;stroke-width:0.264583px;stroke-linecap:butt;stroke-linejoin:miter;stroke-opacity:1"
         d="m 174.12063,79.216868 c -0.0457,0.0014 -0.14453,0.03614 -0.32298,0.122473 l -9.07955,4.380095 c -0.47115,0.212101 -0.43388,0.424958 -0.32814,0.749308 0.36168,1.261896 0.70137,2.456331 1.11879,3.636989 0.0953,0.262205 0.23079,0.284758 0.40721,0.06873 1.87044,-1.984282 5.44308,-5.812779 8.02948,-8.66717 0.12073,-0.133784 0.27577,-0.293487 0.17519,-0.290423 z"
         id="path304510" />
      <path
         style="fill:#05c3de;fill-opacity:1;stroke:none;stroke-width:0.264583px;stroke-linecap:butt;stroke-linejoin:miter;stroke-opacity:1"
         d="m 151.383,73.265812 c -0.085,-0.007 -0.11728,0.07833 -0.12092,0.205155 -0.26452,3.893728 -0.25976,7.982427 -0.35916,11.857157 0.008,0.366969 0.0813,0.3947 0.41755,0.34468 3.62218,-0.652454 7.31935,-1.410618 10.99003,-2.131652 0.37211,-0.07183 0.36966,-0.179856 0.0992,-0.425813 l -10.81121,-9.726022 c -0.0944,-0.08193 -0.16452,-0.119295 -0.21549,-0.123505 z"
         id="path304508" />
      <path
         style="fill:#00a7af;fill-opacity:1;stroke:none;stroke-width:0.264583px;stroke-linecap:butt;stroke-linejoin:miter;stroke-opacity:1"
         d="m 146.70008,72.162518 c -0.27342,2.54e-4 -0.30655,0.150291 -0.1943,0.477491 0.21019,0.680099 0.42224,1.359733 0.63652,2.038815 0.94607,2.998244 1.9354,5.985717 2.99788,8.954829 0.0427,0.105039 0.10375,0.165116 0.11266,-0.01085 l 0.23822,-10.743014 c -0.0133,-0.184833 -0.10504,-0.29164 -0.27337,-0.321427 -0.71205,-0.116054 -2.07171,-0.269163 -3.38584,-0.387056 -0.0491,-0.006 -0.0927,-0.0088 -0.13177,-0.0088 z"
         id="path304506" />
      <path
         style="fill:#05c3de;fill-opacity:1;stroke:none;stroke-width:0.264583px;stroke-linecap:butt;stroke-linejoin:miter;stroke-opacity:1"
         d="m 167.47814,68.118322 c -0.0636,-0.0023 -0.11989,0.06776 -0.16123,0.25063 l -2.95486,14.238924 c -0.0724,0.358355 -0.0107,0.446633 0.33176,0.284221 3.38513,-1.592053 6.81383,-3.169211 10.11928,-4.78782 0.30065,-0.158795 0.34322,-0.225156 0.13229,-0.52555 -2.37406,-3.063862 -4.79073,-6.361166 -7.30911,-9.342583 -0.0546,-0.07004 -0.10868,-0.116017 -0.15813,-0.117822 z"
         id="path304504" />
      <path
         style="opacity:1;fill:#50f5f9;fill-opacity:1;stroke:none;stroke-width:0.264583px;stroke-linecap:butt;stroke-linejoin:miter;stroke-opacity:1"
         d="m 166.50714,67.745217 c -0.0669,0.0014 -0.16569,0.02363 -0.30954,0.07338 l -14.12834,4.445722 c -0.23337,0.08979 -0.50547,0.109175 -0.0935,0.480592 l 11.05979,9.929624 c 0.30402,0.219337 0.44769,0.400257 0.56069,-0.130222 1.06276,-4.850239 2.0957,-9.776595 2.99206,-14.414109 0.0316,-0.204205 0.11958,-0.389218 -0.0811,-0.38499 z"
         id="path304502" />
      <path
         style="fill:#167390;fill-opacity:1;stroke:none;stroke-width:0.264583px;stroke-linecap:butt;stroke-linejoin:miter;stroke-opacity:1"
         d="m 170.75287,64.467382 c -0.0755,-0.0015 -0.167,0.05141 -0.2837,0.162264 h -5.1e-4 c -0.98527,0.877548 -1.98596,1.810625 -2.48874,2.328023 -0.117,0.124233 -0.12679,0.264266 -0.0274,0.420645 l 6.59133,8.486823 c 0.112,0.136025 0.12493,0.05141 0.0966,-0.0584 -1.12272,-3.701198 -2.34999,-7.358616 -3.62975,-10.994678 -0.0711,-0.223706 -0.14757,-0.342467 -0.25787,-0.344681 z"
         id="path304500" />
      <path
         style="fill:#00b5bd;fill-opacity:1;stroke:none;stroke-width:0.264583px;stroke-linecap:butt;stroke-linejoin:miter;stroke-opacity:1"
         d="m 154.73576,62.627184 c -0.0343,0.0037 -0.11202,0.08341 -0.19843,0.178284 l -7.59437,8.235156 c -0.37237,0.338114 -0.14193,0.391271 0.10335,0.438216 0.26781,0.04781 2.02379,0.2618 3.02204,0.326594 0.59455,0.04832 0.72102,-0.248931 0.84336,-0.5333 l 3.76204,-8.367447 c 0.0873,-0.209071 0.0963,-0.281247 0.062,-0.277503 z"
         id="path304498" />
      <path
         style="fill:#00b5bd;fill-opacity:1;stroke:none;stroke-width:0.264583px;stroke-linecap:butt;stroke-linejoin:miter;stroke-opacity:1"
         d="m 158.55775,61.53061 c -0.0824,9.08e-4 -0.0651,0.04714 0.17622,0.195337 l 7.94474,4.587835 c 0.26553,0.159142 0.54175,0.326411 0.9958,-0.06046 0.77188,-0.636312 2.07155,-1.836525 2.26084,-2.031918 0.17152,-0.181514 0.32718,-0.359465 -0.1726,-0.415993 l -10.97607,-2.239659 c -0.0942,-0.01982 -0.17951,-0.03568 -0.22893,-0.03514 z"
         id="path304496" />
      <path
         style="fill:#05c3de;fill-opacity:1;stroke:none;stroke-width:0.264583px;stroke-linecap:butt;stroke-linejoin:miter;stroke-opacity:1"
         d="m 156.3429,61.302717 c -0.10015,0.0066 -0.19289,0.06834 -0.26975,0.243914 L 151.7468,71.1817 c -0.15553,0.265567 -0.17652,0.418153 0.16381,0.280604 0.68954,-0.195282 1.4573,-0.420312 2.28244,-0.668112 3.43522,-1.031642 7.8649,-2.457955 11.78441,-3.775544 0.25629,-0.106307 0.19993,-0.181814 -0.15193,-0.397391 l -9.1674,-5.232757 c -0.10718,-0.04425 -0.21507,-0.09241 -0.31523,-0.08578 z"
         id="path273885" />
    </g>
    <path
       style="fill:#ffffff;fill-opacity:1;stroke:none;stroke-width:0.264583px;stroke-linecap:butt;stroke-linejoin:miter;stroke-opacity:1"
       d="m 21.690157,50.473161 c 1.488462,-0.22422 1.095327,-2.547695 -0.330728,-2.215882 -12.36515,2.797857 -11.194562,-13.657099 0.23151,-9.657291 0.951181,0.33041 1.46344,-1.605809 0.661459,-2.116667 -16.079754,-5.51507 -16.095571,18.589627 -0.562241,13.98984 z"
       id="path1176" />
    <path
       id="path1176-5"
       style="display:inline;fill:#ffffff;fill-opacity:1;stroke:none;stroke-width:0.264583px;stroke-linecap:butt;stroke-linejoin:miter;stroke-opacity:1"
       d="m 108.81197,35.616191 c -0.20161,-0.0041 -0.40529,-0.0036 -0.61082,5.29e-4 -3.01781,0.06032 -4.88074,2.11073 -4.84105,4.36821 0.0645,3.666448 3.18113,4.047707 5.49941,4.739243 0.32597,0.111035 0.67124,0.215009 0.95711,0.335394 0.13049,0.05606 0.24811,0.123801 0.35915,0.196887 0.001,7.94e-4 0.002,0.0019 0.003,0.0026 1.87416,1.426496 0.43611,5.22496 -5.55185,2.418953 -0.73465,-0.225642 -1.894,1.180393 -0.92323,1.986949 1.37833,1.145167 3.22529,1.413172 4.86949,1.380308 3.01781,-0.06032 4.88074,-2.110727 4.84105,-4.36821 -0.0534,-3.038605 -2.20313,-3.819472 -4.25762,-4.39198 -0.88763,-0.296217 -1.71514,-0.434018 -2.45308,-0.809768 -5.3e-4,-2.65e-4 -0.001,-7.94e-4 -0.002,-0.0011 -2.02863,-1.356272 -0.60173,-5.533247 5.49269,-2.677355 0.73465,0.225642 1.52074,-1.607318 0.68884,-2.081009 -1.33789,-0.817687 -2.66032,-1.071062 -4.07158,-1.099674 z" />
    <path
       style="fill:#ffffff;fill-opacity:1;stroke:none;stroke-width:0.264583px;stroke-linecap:butt;stroke-linejoin:miter;stroke-opacity:1"
       d="m 28.536252,37.27707 4.960937,7.011455 v 5.820834 c -0.02132,1.242926 2.345925,1.331885 2.414323,0 V 44.288525 L 40.8016,37.24801 c 0.782156,-1.052775 -0.929002,-2.213054 -1.883598,-1.19464 l -3.990411,5.754685 h -0.224314 l -4.045262,-5.721616 c -0.451142,-0.825608 -2.538664,-0.482623 -2.121763,1.190631 z"
       id="path8135" />
    <path
       id="path8135-5"
       style="display:inline;fill:#ffffff;fill-opacity:1;stroke:none;stroke-width:0.264202px;stroke-linecap:butt;stroke-linejoin:miter;stroke-opacity:1"
       d="m 48.928806,35.63531 -5.16e-4,0.01499 c -0.602824,0.01783 -1.201542,0.327123 -1.194244,0.849561 l -0.02325,13.662731 c -0.02132,1.239351 2.368148,1.266042 2.436546,-0.06201 v -5.415174 l 4.066418,-0.121439 c 3.993906,0.510495 6.452267,-6.278787 1.052647,-8.531262 -1.106781,-0.461698 -4.08918,-0.326633 -6.337596,-0.397393 z m 2.565217,2.361612 c 1.418556,-0.0029 2.681142,0.08569 3.280937,0.421164 2.051375,1.147345 0.862721,3.622019 -0.210323,3.905189 -0.644641,0.170117 -1.680821,0.347052 -2.595708,0.421161 -0.891302,0.0033 -1.185756,0.470916 -1.391644,0.841809 -0.125286,0.225695 -0.266042,0.324398 -0.429948,0.303342 v -5.86786 c 0.453916,-0.01378 0.907616,-0.02391 1.346686,-0.02481 z" />
    <path
       id="path8135-5-1"
       style="display:inline;fill:#ffffff;fill-opacity:1;stroke:none;stroke-width:0.264328px;stroke-linecap:butt;stroke-linejoin:miter;stroke-opacity:1"
       d="m 66.805233,35.636344 c -0.634508,-0.01525 -1.30116,0.299461 -1.29346,0.851109 l -0.02326,13.675135 c -0.02132,1.240531 2.368146,1.267304 2.436543,-0.06201 v -5.401739 l 2.135788,-0.06356 c 0.894617,1.289434 3.707043,5.34452 4.280876,6.204789 0.544351,0.460444 2.492809,0.37901 1.998843,-1.39423 l -3.488674,-4.871537 c 3.453661,-0.470974 5.188648,-6.443022 0.190169,-8.528161 -1.053738,-0.439571 -3.805968,-0.33877 -6.007902,-0.389125 -0.07512,-0.01183 -0.151582,-0.01881 -0.228928,-0.02067 z m 2.464967,2.374014 c 1.418556,-0.0029 2.681139,0.0857 3.280936,0.421164 2.051373,1.147344 0.862722,3.622018 -0.210322,3.905189 -0.644644,0.170116 -1.680821,0.347051 -2.595708,0.421161 -0.891305,0.0033 -1.185757,0.470916 -1.391648,0.841809 -0.124856,0.224922 -0.265207,0.324022 -0.428397,0.303858 v -5.868892 c 0.453239,-0.01374 0.906724,-0.02339 1.345139,-0.02429 z" />
    <path
       id="path8135-5-1-0"
       style="display:inline;fill:#ffffff;fill-opacity:1;stroke:none;stroke-width:0.224348px;stroke-linecap:butt;stroke-linejoin:miter;stroke-opacity:1"
       d="m 95.037103,35.623425 c -0.559861,0.0097 -1.09473,0.204472 -1.119828,0.629936 l 0.02067,8.041886 0.0026,1.046448 c -0.0012,0.493016 -0.04691,0.821012 -0.117306,1.088821 -1.036722,3.054093 -5.849471,3.107574 -7.47913,0.580327 -0.09677,-0.150069 -0.184436,-0.30584 -0.262001,-0.467673 -0.09358,-0.29487 -0.171643,-0.604393 -0.173114,-1.188556 l 0.02325,-9.088334 c -0.02508,-0.425463 -0.559969,-0.620244 -1.119828,-0.629936 -0.63451,-0.01098 -1.300644,0.21549 -1.292944,0.612881 0,0 -0.01615,6.084401 -0.02377,9.126577 -2.7e-5,0.01055 7.56e-4,0.02133 0.0016,0.03204 -0.01225,0.556212 0.04088,1.183444 0.196371,1.788004 0.270627,1.052239 1.403173,2.373203 2.585371,2.905249 2.323108,1.045506 5.952191,1.121569 7.642429,0.01654 2.130142,-1.392629 2.513962,-2.783223 2.432402,-4.950603 -0.008,-3.100548 -0.0233,-8.930719 -0.0233,-8.930719 0.008,-0.397391 -0.65844,-0.623863 -1.292941,-0.612883 z" />
    <path
       id="path65529-3-0"
       style="display:inline;fill:#ffffff;fill-opacity:1;stroke:none;stroke-width:0.264583px;stroke-linecap:butt;stroke-linejoin:miter;stroke-opacity:1"
       d="m 43.968188,61.558505 c -1.934067,0.009 -2.689836,1.121505 -2.806547,1.403533 0,0 -8.88715,21.504731 -9.05061,22.076691 -0.140075,0.47841 -0.425481,1.04863 -0.303858,1.84743 0.258189,1.69572 3.841806,2.89005 5.144905,0.0935 2.028865,-4.59883 2.039154,-4.52169 2.039154,-4.52169 0.05266,-0.1116 0.165397,-0.32069 0.369364,-0.36615 l 7.643553,-0.01 c 1.477494,-0.002 1.541658,-1.48139 1.541658,-1.48139 0.0016,-0.0253 0.04616,-0.0238 0.05465,-0.002 1.709285,4.30198 1.725475,4.30081 2.547136,6.43101 1.032417,2.67659 5.021558,1.63991 5.308203,-0.11989 0.123195,-0.75634 -0.02484,-1.27805 -0.303859,-1.94097 -3.216687,-7.64228 -8.815551,-21.555 -9.190653,-22.006411 -0.3751,-0.451413 -0.897187,-1.376045 -2.900082,-1.403016 -0.0313,-5.3e-4 -0.06232,-5.3e-4 -0.09302,-5.3e-4 z m 0.10387,6.347924 3.520649,8.94695 H 40.53011 Z" />
  </g>
</svg>
