<?xml version="1.0" encoding="UTF-8" standalone="no"?>
<!-- Created with Inkscape (http://www.inkscape.org/) -->

<svg
   width="28.631275mm"
   height="27.314434mm"
   viewBox="0 0 28.631275 27.314434"
   version="1.1"
   id="svg465"
   xmlns="http://www.w3.org/2000/svg"
   xmlns:svg="http://www.w3.org/2000/svg">
  <defs
     id="defs462" />
  <g
     id="layer1"
     transform="translate(-58.053487,-38.290912)">
    <g
       id="g713">
      <path
         style="display:inline;fill:#00a7af;fill-opacity:1;stroke:none;stroke-width:0.264583px;stroke-linecap:butt;stroke-linejoin:miter;stroke-opacity:1"
         d="m 74.777958,61.228643 c -0.0687,-9.4e-4 -0.14938,0.008 -0.24443,0.0264 l -9.93893,1.68362 c -0.62558,0.10523 -0.2796,0.16516 -0.0238,0.2222 3.76127,0.83059 8.89086,1.88508 11.56467,2.42053 0.2689,0.074 0.36656,-0.0235 0.29248,-0.29249 -0.343,-1.20438 -0.75723,-2.37484 -1.19269,-3.61322 -0.0824,-0.26464 -0.15946,-0.44293 -0.45733,-0.447 z"
         id="path304512-0" />
      <path
         style="display:inline;fill:#167390;fill-opacity:1;stroke:none;stroke-width:0.264583px;stroke-linecap:butt;stroke-linejoin:miter;stroke-opacity:1"
         d="m 85.728708,56.205693 c -0.0457,0.001 -0.14453,0.0361 -0.32298,0.12247 l -9.07955,4.3801 c -0.47115,0.2121 -0.43388,0.42495 -0.32814,0.7493 0.36168,1.2619 0.70137,2.45633 1.11879,3.63699 0.0953,0.26221 0.23079,0.28476 0.40721,0.0687 1.87044,-1.98428 5.44308,-5.81278 8.02948,-8.66717 0.12073,-0.13378 0.27577,-0.29348 0.17519,-0.29042 z"
         id="path304510-0" />
      <path
         style="display:inline;fill:#05c3de;fill-opacity:1;stroke:none;stroke-width:0.264583px;stroke-linecap:butt;stroke-linejoin:miter;stroke-opacity:1"
         d="m 62.991078,50.254633 c -0.085,-0.007 -0.11728,0.0783 -0.12092,0.20516 -0.26452,3.89372 -0.25976,7.98242 -0.35916,11.85715 0.008,0.36697 0.0813,0.3947 0.41755,0.34468 3.62218,-0.65245 7.31935,-1.41061 10.99003,-2.13165 0.37211,-0.0718 0.36966,-0.17985 0.0992,-0.42581 l -10.81121,-9.72602 c -0.0944,-0.0819 -0.16452,-0.1193 -0.21549,-0.12351 z"
         id="path304508-4" />
      <path
         style="display:inline;fill:#00a7af;fill-opacity:1;stroke:none;stroke-width:0.264583px;stroke-linecap:butt;stroke-linejoin:miter;stroke-opacity:1"
         d="m 58.308158,49.151343 c -0.27342,2.5e-4 -0.30655,0.15029 -0.1943,0.47749 1.13819,3.68283 2.33127,7.35205 3.6344,10.99364 0.0427,0.10504 0.10375,0.16512 0.11266,-0.0109 l 0.23822,-10.74301 c -0.0133,-0.18483 -0.10504,-0.29164 -0.27337,-0.32143 -0.71205,-0.11605 -2.07171,-0.26916 -3.38584,-0.38705 -0.0491,-0.006 -0.0927,-0.009 -0.13177,-0.009 z"
         id="path304506-1" />
      <path
         style="display:inline;fill:#05c3de;fill-opacity:1;stroke:none;stroke-width:0.264583px;stroke-linecap:butt;stroke-linejoin:miter;stroke-opacity:1"
         d="m 79.086218,45.107143 c -0.0636,-0.002 -0.11989,0.0678 -0.16123,0.25063 l -2.95486,14.23893 c -0.0724,0.35835 -0.0107,0.44663 0.33176,0.28422 3.38513,-1.59206 6.81383,-3.16921 10.11928,-4.78782 0.30065,-0.1588 0.34322,-0.22516 0.13229,-0.52555 -2.37406,-3.06386 -4.79073,-6.36117 -7.30911,-9.34259 -0.0546,-0.07 -0.10868,-0.11601 -0.15813,-0.11782 z"
         id="path304504-6" />
      <path
         style="display:inline;fill:#50f5f9;fill-opacity:1;stroke:none;stroke-width:0.264583px;stroke-linecap:butt;stroke-linejoin:miter;stroke-opacity:1"
         d="m 78.115218,44.734043 c -0.0669,10e-4 -0.16569,0.0236 -0.30954,0.0734 l -14.12834,4.44572 c -0.23337,0.0898 -0.50547,0.10917 -0.0935,0.48059 l 11.05979,9.92962 c 0.30402,0.21934 0.44769,0.40026 0.56069,-0.13022 1.06276,-4.85024 2.0957,-9.77659 2.99206,-14.41411 0.0316,-0.2042 0.11958,-0.38921 -0.0811,-0.38499 z"
         id="path304502-0" />
      <path
         style="display:inline;fill:#167390;fill-opacity:1;stroke:none;stroke-width:0.264583px;stroke-linecap:butt;stroke-linejoin:miter;stroke-opacity:1"
         d="m 82.360948,41.456203 c -0.0755,-0.001 -0.167,0.0514 -0.2837,0.16227 h -5.1e-4 c -0.98527,0.87754 -1.98596,1.81062 -2.48874,2.32802 -0.117,0.12423 -0.12679,0.26427 -0.0274,0.42064 l 6.59133,8.48683 c 0.112,0.13602 0.12493,0.0514 0.0966,-0.0584 -1.12272,-3.7012 -2.34999,-7.35862 -3.62975,-10.99468 -0.0711,-0.22371 -0.14757,-0.34247 -0.25787,-0.34468 z"
         id="path304500-6" />
      <path
         style="display:inline;fill:#00b5bd;fill-opacity:1;stroke:none;stroke-width:0.264583px;stroke-linecap:butt;stroke-linejoin:miter;stroke-opacity:1"
         d="m 66.343838,39.616003 c -0.0343,0.004 -0.11202,0.0834 -0.19843,0.17829 l -7.59437,8.23515 c -0.37237,0.33812 -0.14193,0.39127 0.10335,0.43822 0.26781,0.0478 2.02379,0.2618 3.02204,0.32659 0.59455,0.0483 0.72102,-0.24893 0.84336,-0.5333 l 3.76204,-8.36744 c 0.0873,-0.20907 0.0963,-0.28125 0.062,-0.27751 z"
         id="path304498-0" />
      <path
         style="display:inline;fill:#00b5bd;fill-opacity:1;stroke:none;stroke-width:0.264583px;stroke-linecap:butt;stroke-linejoin:miter;stroke-opacity:1"
         d="m 70.165828,38.519433 c -0.0824,9.1e-4 -0.0651,0.0471 0.17622,0.19534 l 7.94474,4.58783 c 0.26553,0.15914 0.54175,0.32641 0.9958,-0.0605 0.77188,-0.63631 2.07155,-1.83652 2.26084,-2.03192 0.17152,-0.18151 0.32718,-0.35946 -0.1726,-0.41599 l -10.97607,-2.23966 c -0.0942,-0.0198 -0.17951,-0.0357 -0.22893,-0.0351 z"
         id="path304496-3" />
      <path
         style="display:inline;fill:#05c3de;fill-opacity:1;stroke:none;stroke-width:0.264583px;stroke-linecap:butt;stroke-linejoin:miter;stroke-opacity:1"
         d="m 67.950978,38.291543 c -0.10015,0.007 -0.19289,0.0683 -0.26975,0.24391 l -4.32635,9.63507 c -0.15553,0.26557 -0.17652,0.41815 0.16381,0.2806 3.56021,-1.00828 9.20587,-2.80958 14.06685,-4.44365 0.25629,-0.10631 0.19993,-0.18182 -0.15193,-0.39739 l -9.1674,-5.23276 c -0.10718,-0.0443 -0.21507,-0.0924 -0.31523,-0.0858 z"
         id="path273885-2" />
    </g>
  </g>
</svg>
