<svg xmlns="http://www.w3.org/2000/svg" width="234" height="80" viewBox="0 0 234 80" fill="none"><g clip-path="url(#clip0_718_638)"><path d="M84.1515 36.9071C72.2442 36.9071 62.5898 46.5557 62.5898 58.4559C62.5898 70.356 72.2442 80.0047 84.1515 80.0047C96.0587 80.0047 105.713 70.356 105.713 58.4559C105.713 46.5557 96.0587 36.9071 84.1515 36.9071ZM84.1515 67.878C78.9426 67.878 74.7238 63.6616 74.7238 58.4559C74.7238 53.2501 78.9426 49.0338 84.1515 49.0338C89.3603 49.0338 93.5792 53.2548 93.5792 58.4559C93.5792 63.657 89.3603 67.878 84.1515 67.878Z" fill="#623F99"></path><path d="M155.039 65.6357V78.3912C155.039 79.2788 154.317 80 153.429 80H131.71C127.741 80 124.521 76.7823 124.521 72.8156V68.1508C124.521 66.7638 123.397 65.6357 122.009 65.6311H117.541C113.572 65.6311 110.352 62.4134 110.352 58.4467L110.236 22.5336H122.898C123.795 22.5336 124.521 23.2594 124.521 24.1563V65.178C124.521 65.4277 124.72 65.6265 124.97 65.6265H155.039V65.6357Z" fill="#623F99"></path><path d="M19.7991 72.7462C16.4222 68.9413 14.3729 63.9389 14.3729 58.4512V24.1655C14.3729 23.2686 13.6466 22.5427 12.7492 22.5427H0V51.2713C0 62.3347 8.34525 71.447 19.0821 72.6768C19.5262 72.7277 19.9194 72.9218 20.2247 73.2131C24.0874 77.3185 29.5461 79.9121 35.6107 80C47.6429 80.1756 57.4869 70.1433 57.4869 58.1183V22.5427H43.114V51.2713C43.114 63.1715 33.4596 72.8201 21.5524 72.8201C20.9603 72.8201 20.3728 72.797 19.7945 72.7508L19.7991 72.7462Z" fill="#623F99"></path><path d="M151.847 13.8696C148.965 13.8696 146.92 12.6167 146.92 8.80255V0.76741C146.92 0.568612 147.082 0.425293 147.281 0.425293H149.052C149.251 0.425293 149.409 0.568612 149.409 0.76741V8.80717C149.409 10.846 149.908 11.8123 151.847 11.8123C153.785 11.8123 154.284 10.846 154.284 8.80717V0.76741C154.284 0.568612 154.446 0.425293 154.641 0.425293H156.412C156.611 0.425293 156.773 0.568612 156.773 0.76741V8.80717C156.773 12.6213 154.733 13.8742 151.847 13.8742" fill="#623F99"></path><path d="M166.748 13.7263H165.101C164.903 13.7263 164.745 13.546 164.745 13.3518V7.51734C164.745 5.95932 164.602 5.51087 163.223 5.51087C162.613 5.51087 161.951 5.76052 161.197 6.15349V13.3472C161.197 13.546 161.035 13.7217 160.841 13.7217H159.194C158.995 13.7217 158.838 13.5414 158.838 13.3472V3.98983C158.838 3.79103 159 3.63384 159.194 3.63384H160.753C160.952 3.63384 161.114 3.79566 161.114 3.98983V4.36431C162.15 3.70319 162.835 3.50439 164.014 3.50439C166.591 3.50439 167.114 5.24272 167.114 7.51272V13.3472C167.114 13.546 166.952 13.7217 166.758 13.7217" fill="#623F99"></path><path d="M171.188 2.29311H169.449C169.255 2.29311 169.074 2.1313 169.074 1.93712V0.36061C169.074 0.161812 169.255 0 169.449 0H171.188C171.387 0 171.549 0.161812 171.549 0.36061V1.93712C171.549 2.13592 171.387 2.29311 171.188 2.29311ZM171.133 13.7309H169.486C169.287 13.7309 169.13 13.5506 169.13 13.3564V3.98983C169.13 3.79103 169.292 3.63384 169.486 3.63384H171.133C171.332 3.63384 171.489 3.79565 171.489 3.98983V13.3518C171.489 13.5506 171.327 13.7263 171.133 13.7263" fill="#623F99"></path><path d="M181.768 4.04525L179.511 12.1867C179.155 13.509 178.188 13.8696 177.272 13.8696C176.356 13.8696 175.412 13.5136 175.051 12.1867L172.794 4.04525C172.775 4.00827 172.775 3.95741 172.775 3.92043C172.775 3.75862 172.9 3.63379 173.062 3.63379H174.852C175.014 3.63379 175.158 3.75862 175.209 3.98978L176.93 11.4886C177.004 11.8261 177.128 11.9371 177.267 11.9371C177.406 11.9371 177.536 11.8307 177.61 11.4886L179.33 3.98978C179.386 3.75862 179.543 3.63379 179.705 3.63379H181.495C181.657 3.63379 181.782 3.75862 181.782 3.92043C181.782 3.95741 181.782 4.00827 181.764 4.04525" fill="#623F99"></path><path d="M190.562 9.50535H184.724V9.56083C184.724 10.6011 185.155 11.8354 186.876 11.8354C188.185 11.8354 189.42 11.7291 190.169 11.6551H190.225C190.405 11.6551 190.549 11.743 190.549 11.9233V13.1022C190.549 13.3888 190.493 13.5137 190.174 13.5692C189.008 13.7864 188.31 13.8743 186.7 13.8743C184.91 13.8743 182.365 12.908 182.365 9.38052V8.05829C182.365 5.26587 183.924 3.51367 186.663 3.51367C189.401 3.51367 190.923 5.39532 190.923 8.05829V9.06152C190.923 9.34816 190.817 9.50997 190.567 9.50997M188.546 7.75778C188.546 6.36157 187.773 5.55713 186.667 5.55713C185.562 5.55713 184.752 6.34308 184.752 7.75778V7.83175H188.55V7.75778H188.546Z" fill="#623F99"></path><path d="M197.417 5.51087C196.451 5.51087 195.697 5.76052 194.947 6.15349V13.3472C194.947 13.5414 194.785 13.7217 194.591 13.7217H192.944C192.745 13.7217 192.588 13.5414 192.588 13.3472V3.98983C192.588 3.79566 192.75 3.63384 192.944 3.63384H194.503C194.702 3.63384 194.864 3.79566 194.864 3.98983V4.36431C195.743 3.6847 196.71 3.50439 197.427 3.50439C197.626 3.50439 197.783 3.66621 197.783 3.86038V5.15026C197.783 5.34443 197.621 5.50624 197.427 5.50624" fill="#623F99"></path><path d="M202.219 13.8696C201.521 13.8696 200.017 13.7818 199.013 13.5137C198.801 13.4582 198.676 13.3149 198.676 13.1022V12.0296C198.676 11.8863 198.801 11.743 198.981 11.743H199.05C199.911 11.8493 201.521 11.9371 202.057 11.9371C203.168 11.9371 203.33 11.5627 203.33 11.0772C203.33 10.7397 203.117 10.5224 202.543 10.1665L200.091 8.66391C199.212 8.12762 198.588 7.23072 198.588 6.19512C198.588 4.40594 199.717 3.50903 201.988 3.50903C203.441 3.50903 204.264 3.67085 205.175 3.86502C205.388 3.9205 205.499 4.06382 205.499 4.27649V5.31208C205.499 5.52475 205.393 5.6542 205.212 5.6542H205.143C204.643 5.58485 203.209 5.44153 202.187 5.44153C201.326 5.44153 200.952 5.64033 200.952 6.19512C200.952 6.48176 201.22 6.66206 201.669 6.93021L204.014 8.3634C205.518 9.27417 205.735 10.1711 205.735 11.0818C205.735 12.6399 204.569 13.8743 202.224 13.8743" fill="#623F99"></path><path d="M209.45 2.29311H207.711C207.516 2.29311 207.336 2.1313 207.336 1.93712V0.36061C207.336 0.161812 207.516 0 207.711 0H209.45C209.649 0 209.811 0.161812 209.811 0.36061V1.93712C209.811 2.13592 209.649 2.29311 209.45 2.29311ZM209.394 13.7309H207.748C207.549 13.7309 207.391 13.5506 207.391 13.3564V3.98983C207.391 3.79103 207.553 3.63384 207.748 3.63384H209.394C209.593 3.63384 209.751 3.79565 209.751 3.98983V13.3518C209.751 13.5506 209.589 13.7263 209.394 13.7263" fill="#623F99"></path><path d="M217.079 13.7448C216.649 13.8188 216.256 13.8696 215.862 13.8696C213.836 13.8696 213.013 13.4212 213.013 11.0263V5.40452L211.329 5.15487C211.13 5.11788 210.973 4.99306 210.973 4.79888V3.99444C210.973 3.80027 211.135 3.63846 211.329 3.63846H213.013V2.1729C213.013 1.9741 213.175 1.84927 213.369 1.81691L215.034 1.53027H215.104C215.266 1.53027 215.39 1.61811 215.39 1.79842V3.64308H217C217.199 3.64308 217.356 3.80489 217.356 3.99907V5.05778C217.356 5.25196 217.195 5.41377 217 5.41377H215.39V11.0356C215.39 11.9325 215.446 12.0388 216.089 12.0388H217.037C217.269 12.0388 217.412 12.1267 217.412 12.307V13.435C217.412 13.6153 217.306 13.7217 217.074 13.7587" fill="#623F99"></path><path d="M227.07 4.04525L224.082 14.4983C223.527 16.4493 222.865 17.3092 220.428 17.3092C219.835 17.3092 218.943 17.2029 218.531 17.0781C218.332 17.0226 218.156 16.9533 218.156 16.7729V15.6264C218.156 15.4276 218.318 15.3028 218.512 15.3028H218.549C219.049 15.3213 220.071 15.4091 220.576 15.4091C221.343 15.4091 221.741 15.1918 221.991 14.2625L222.134 13.7263H221.866C221.348 13.7263 220.7 13.6014 220.307 12.2422L217.962 4.04525C217.943 3.98978 217.943 3.95741 217.943 3.92043C217.943 3.74012 218.05 3.63379 218.286 3.63379H220.094C220.256 3.63379 220.4 3.7956 220.437 3.95741L222.246 11.2436C222.32 11.5487 222.389 11.6366 222.495 11.6366H222.657L224.591 3.93892C224.628 3.77711 224.771 3.63379 224.952 3.63379H226.779C226.959 3.63379 227.103 3.77711 227.103 3.93892C227.103 3.97591 227.103 4.00827 227.084 4.04525" fill="#623F99"></path><path d="M150.81 32.2145C147.998 32.2145 146.531 30.319 146.531 27.7577V26.306C146.531 23.7448 147.998 21.8492 150.81 21.8492C153.623 21.8492 155.089 23.7448 155.089 26.306V27.7577C155.089 30.319 153.623 32.2145 150.81 32.2145ZM152.725 26.306C152.725 24.8405 152.064 23.8881 150.81 23.8881C149.557 23.8881 148.895 24.8358 148.895 26.306V27.7577C148.895 29.2233 149.557 30.1756 150.81 30.1756C152.064 30.1756 152.725 29.2279 152.725 27.7577V26.306Z" fill="#623F99"></path><path d="M161.678 20.0277H160.873C160.012 20.0277 159.818 20.2265 159.818 21.1003V21.9787H161.534C161.733 21.9787 161.895 22.1405 161.895 22.3393V23.4119C161.895 23.6107 161.733 23.754 161.534 23.754H159.818V31.7013C159.818 31.9001 159.656 32.0758 159.457 32.0758H157.829C157.63 32.0758 157.454 31.8955 157.454 31.7013V23.754L155.858 23.5044C155.659 23.4674 155.502 23.361 155.502 23.1622V22.3393C155.502 22.1405 155.664 21.9787 155.858 21.9787H157.454V21.1003C157.454 18.7933 158.689 18.2385 160.554 18.2385C160.984 18.2385 161.289 18.3079 161.627 18.3818C161.77 18.4188 161.951 18.5067 161.951 18.6685V19.7226C161.951 19.9352 161.807 20.0277 161.682 20.0277" fill="#623F99"></path><path d="M174.59 31.9649C174.053 32.0897 172.494 32.2146 171.546 32.2146C169.219 32.2146 167.41 31.5904 167.41 28.5437V19.1309C167.41 18.9321 167.572 18.7749 167.766 18.7749H169.538C169.737 18.7749 169.894 18.9367 169.894 19.1309V28.5437C169.894 29.7227 170.25 30.0833 171.291 30.0833H174.585C174.784 30.0833 174.941 30.2451 174.941 30.4393V31.5858C174.941 31.8355 174.853 31.9094 174.585 31.9603" fill="#623F99"></path><path d="M178.225 20.6333H176.486C176.292 20.6333 176.111 20.4715 176.111 20.2773V18.7008C176.111 18.502 176.292 18.3402 176.486 18.3402H178.225C178.424 18.3402 178.586 18.502 178.586 18.7008V20.2773C178.586 20.4761 178.424 20.6333 178.225 20.6333ZM178.17 32.0711H176.523C176.324 32.0711 176.167 31.8908 176.167 31.6967V22.3347C176.167 22.1359 176.329 21.9787 176.523 21.9787H178.17C178.369 21.9787 178.526 22.1405 178.526 22.3347V31.6967C178.526 31.8955 178.364 32.0711 178.17 32.0711Z" fill="#623F99"></path><path d="M193.051 32.0712H191.405C191.206 32.0712 191.048 31.8909 191.048 31.6967V25.6125C191.048 24.2348 190.762 23.8742 189.758 23.8742C189.42 23.8742 188.735 23.9805 188.092 24.3227C188.148 24.7156 188.166 25.1641 188.166 25.6125V31.6967C188.166 31.8955 188.004 32.0712 187.806 32.0712H186.159C185.96 32.0712 185.802 31.8909 185.802 31.6967V25.6125C185.802 24.2348 185.571 23.8742 184.567 23.8742C184.193 23.8742 183.656 24.073 182.921 24.466V31.6967C182.921 31.8955 182.759 32.0712 182.56 32.0712H180.913C180.714 32.0712 180.557 31.8909 180.557 31.6967V22.3347C180.557 22.1359 180.719 21.9787 180.913 21.9787H182.472C182.671 21.9787 182.833 22.1405 182.833 22.3347V22.7092C183.582 22.2237 184.336 21.8492 185.395 21.8492C186.455 21.8492 187.079 22.1544 187.491 22.6537C188.402 22.1544 189.212 21.8492 190.447 21.8492C192.88 21.8492 193.421 23.5136 193.421 25.6079V31.6921C193.421 31.8909 193.26 32.0665 193.065 32.0665" fill="#623F99"></path><path d="M202.507 32.0712H200.985C200.786 32.0712 200.629 31.9093 200.629 31.7105V31.4239C199.806 31.9232 198.964 32.2099 198.103 32.2099C196.618 32.2099 195.004 31.6366 195.004 29.2233V29.1539C195.004 27.1151 196.258 26.0564 199.375 26.0564H200.504V25.2704C200.504 24.1054 199.986 23.8187 198.927 23.8187C197.779 23.8187 196.6 23.8881 196.008 23.9621H195.92C195.739 23.9621 195.596 23.9066 195.596 23.6569V22.5104C195.596 22.3116 195.702 22.1867 195.938 22.1359C196.655 21.9926 197.692 21.8492 198.927 21.8492C201.471 21.8492 202.868 22.9773 202.868 25.2658V31.7105C202.868 31.9093 202.706 32.0712 202.512 32.0712M200.504 27.6329H199.375C197.747 27.6329 197.386 28.1507 197.386 29.1539V29.2233C197.386 30.1017 197.779 30.3328 198.677 30.3328C199.32 30.3328 199.981 30.1155 200.504 29.8335V27.6329Z" fill="#623F99"></path><path d="M208.108 32.2145C207.409 32.2145 205.906 32.1267 204.902 31.8585C204.689 31.803 204.564 31.6597 204.564 31.447V30.3745C204.564 30.2311 204.689 30.0878 204.87 30.0878H204.939C205.8 30.1942 207.409 30.282 207.946 30.282C209.056 30.282 209.218 29.9075 209.218 29.4221C209.218 29.0846 209.005 28.8673 208.432 28.5113L205.98 27.0088C205.101 26.4725 204.477 25.5756 204.477 24.54C204.477 22.7508 205.605 21.8539 207.877 21.8539C209.329 21.8539 210.153 22.0157 211.064 22.2099C211.277 22.2653 211.388 22.4087 211.388 22.6213V23.6569C211.388 23.8696 211.281 23.9991 211.101 23.9991H211.032C210.532 23.9297 209.098 23.7864 208.076 23.7864C207.215 23.7864 206.84 23.9852 206.84 24.54C206.84 24.8266 207.109 25.0069 207.557 25.2751L209.903 26.7083C211.406 27.619 211.624 28.5159 211.624 29.4267C211.624 30.9847 210.458 32.2191 208.113 32.2191" fill="#623F99"></path><path d="M216.508 32.2145C215.81 32.2145 214.306 32.1267 213.303 31.8585C213.09 31.803 212.965 31.6597 212.965 31.447V30.3745C212.965 30.2311 213.09 30.0878 213.27 30.0878H213.34C214.2 30.1942 215.81 30.282 216.346 30.282C217.457 30.282 217.619 29.9075 217.619 29.4221C217.619 29.0846 217.406 28.8673 216.832 28.5113L214.38 27.0088C213.501 26.4725 212.877 25.5756 212.877 24.54C212.877 22.7508 214.006 21.8539 216.277 21.8539C217.73 21.8539 218.553 22.0157 219.464 22.2099C219.677 22.2653 219.788 22.4087 219.788 22.6213V23.6569C219.788 23.8696 219.682 23.9991 219.501 23.9991H219.432C218.932 23.9297 217.498 23.7864 216.476 23.7864C215.616 23.7864 215.241 23.9852 215.241 24.54C215.241 24.8266 215.509 25.0069 215.958 25.2751L218.303 26.7083C219.807 27.619 220.024 28.5159 220.024 29.4267C220.024 30.9847 218.858 32.2191 216.513 32.2191" fill="#623F99"></path><path d="M225.603 32.2145C222.791 32.2145 221.324 30.319 221.324 27.7577V26.306C221.324 23.7448 222.791 21.8492 225.603 21.8492C228.416 21.8492 229.882 23.7448 229.882 26.306V27.7577C229.882 30.319 228.416 32.2145 225.603 32.2145ZM227.518 26.306C227.518 24.8405 226.857 23.8881 225.603 23.8881C224.35 23.8881 223.688 24.8358 223.688 26.306V27.7577C223.688 29.2233 224.35 30.1756 225.603 30.1756C226.857 30.1756 227.518 29.2279 227.518 27.7577V26.306Z" fill="#623F99"></path><path d="M233.662 32.0712H231.997C231.798 32.0712 231.641 31.8909 231.641 31.6967V18.8118C231.641 18.613 231.803 18.4558 231.997 18.4558H233.662C233.861 18.4558 234 18.6176 234 18.8118V31.6967C234 31.8955 233.856 32.0712 233.662 32.0712Z" fill="#623F99"></path><path d="M153.161 48.9274H148.512V49.1216C148.512 50.7721 149.165 51.3823 150.441 51.3823C151.246 51.3823 152.273 51.3268 152.912 51.2297H152.981C153.092 51.2297 153.203 51.2852 153.203 51.4239V51.8955C153.203 52.0758 153.147 52.1729 152.925 52.2145C152.134 52.3671 151.371 52.4503 150.441 52.4503C148.845 52.4503 147.291 51.7013 147.291 49.1216V47.8733C147.291 45.8899 148.387 44.6278 150.372 44.6278C152.356 44.6278 153.425 45.9038 153.425 47.8733V48.6223C153.425 48.8026 153.328 48.9274 153.161 48.9274ZM152.19 47.8733C152.19 46.306 151.593 45.6958 150.372 45.6958C149.151 45.6958 148.512 46.3754 148.512 47.8733V47.9981H152.19V47.8733Z" fill="#623F99"></path><path d="M160.669 45.0578L158.796 51.6598C158.615 52.2839 158.143 52.4504 157.547 52.4504C156.95 52.4504 156.478 52.2839 156.298 51.6598L154.424 45.0578C154.41 45.0162 154.41 44.9885 154.41 44.9608C154.41 44.8221 154.493 44.725 154.632 44.725H155.395C155.507 44.725 155.604 44.8082 155.659 44.9885L157.255 51.0357C157.338 51.3685 157.408 51.4379 157.547 51.4379C157.671 51.4379 157.755 51.3685 157.838 51.0357L159.434 44.9885C159.489 44.8082 159.587 44.725 159.698 44.725H160.461C160.6 44.725 160.683 44.8221 160.683 44.9608C160.683 44.9885 160.683 45.0162 160.669 45.0578Z" fill="#623F99"></path><path d="M167.511 48.9274H162.862V49.1216C162.862 50.7721 163.514 51.3823 164.791 51.3823C165.596 51.3823 166.623 51.3268 167.261 51.2297H167.331C167.442 51.2297 167.553 51.2852 167.553 51.4239V51.8955C167.553 52.0758 167.497 52.1729 167.275 52.2145C166.484 52.3671 165.721 52.4503 164.791 52.4503C163.195 52.4503 161.641 51.7013 161.641 49.1216V47.8733C161.641 45.8899 162.737 44.6278 164.722 44.6278C166.706 44.6278 167.775 45.9038 167.775 47.8733V48.6223C167.775 48.8026 167.678 48.9274 167.511 48.9274ZM166.54 47.8733C166.54 46.306 165.943 45.6958 164.722 45.6958C163.5 45.6958 162.862 46.3754 162.862 47.8733V47.9981H166.54V47.8733Z" fill="#623F99"></path><path d="M172.576 45.6819C171.937 45.6819 171.355 45.8483 170.661 46.2644V52.0758C170.661 52.2145 170.536 52.3532 170.383 52.3532H169.703C169.564 52.3532 169.439 52.2284 169.439 52.0758V45.0023C169.439 44.8497 169.55 44.7249 169.703 44.7249H170.355C170.508 44.7249 170.619 44.8497 170.619 45.0023V45.2936C171.313 44.8081 171.951 44.6278 172.576 44.6278C172.77 44.6278 172.867 44.711 172.867 44.8775V45.4461C172.867 45.5987 172.77 45.6819 172.576 45.6819Z" fill="#623F99"></path><path d="M183.236 48.9274H178.586V49.1216C178.586 50.7721 179.239 51.3823 180.516 51.3823C181.32 51.3823 182.347 51.3268 182.986 51.2297H183.055C183.166 51.2297 183.277 51.2852 183.277 51.4239V51.8955C183.277 52.0758 183.222 52.1729 183 52.2145C182.209 52.3671 181.445 52.4503 180.516 52.4503C178.92 52.4503 177.365 51.7013 177.365 49.1216V47.8733C177.365 45.8899 178.462 44.6278 180.446 44.6278C182.431 44.6278 183.499 45.9038 183.499 47.8733V48.6223C183.499 48.8026 183.402 48.9274 183.236 48.9274ZM182.264 47.8733C182.264 46.306 181.667 45.6958 180.446 45.6958C179.225 45.6958 178.586 46.3754 178.586 47.8733V47.9981H182.264V47.8733Z" fill="#623F99"></path><path d="M190.737 45.0578L188.864 51.6598C188.684 52.2839 188.212 52.4504 187.615 52.4504C187.018 52.4504 186.546 52.2839 186.366 51.6598L184.492 45.0578C184.479 45.0162 184.479 44.9885 184.479 44.9608C184.479 44.8221 184.562 44.725 184.701 44.725H185.464C185.575 44.725 185.672 44.8082 185.728 44.9885L187.323 51.0357C187.407 51.3685 187.476 51.4379 187.615 51.4379C187.74 51.4379 187.823 51.3685 187.906 51.0357L189.502 44.9885C189.558 44.8082 189.655 44.725 189.766 44.725H190.529C190.668 44.725 190.751 44.8221 190.751 44.9608C190.751 44.9885 190.751 45.0162 190.737 45.0578Z" fill="#623F99"></path><path d="M194.766 52.4503C192.726 52.4503 191.686 51.1049 191.686 49.0661V48.012C191.686 45.9732 192.726 44.6278 194.766 44.6278C196.806 44.6278 197.861 45.9732 197.861 48.012V49.0661C197.861 51.1049 196.806 52.4503 194.766 52.4503ZM196.64 48.012C196.64 46.5973 196.071 45.6958 194.766 45.6958C193.462 45.6958 192.907 46.5834 192.907 48.012V49.0661C192.907 50.4808 193.462 51.3823 194.766 51.3823C196.071 51.3823 196.64 50.4947 196.64 49.0661V48.012Z" fill="#623F99"></path><path d="M200.61 52.3532H199.888C199.75 52.3532 199.639 52.2283 199.639 52.0758V42.1867C199.639 42.048 199.736 41.9232 199.888 41.9232H200.61C200.749 41.9232 200.86 42.0342 200.86 42.1867V52.0758C200.86 52.2145 200.763 52.3532 200.61 52.3532Z" fill="#623F99"></path><path d="M208.741 45.0578L206.868 51.6598C206.687 52.2839 206.216 52.4504 205.619 52.4504C205.022 52.4504 204.55 52.2839 204.37 51.6598L202.496 45.0578C202.482 45.0162 202.482 44.9885 202.482 44.9608C202.482 44.8221 202.566 44.725 202.704 44.725H203.468C203.579 44.725 203.676 44.8082 203.731 44.9885L205.327 51.0357C205.411 51.3685 205.48 51.4379 205.619 51.4379C205.744 51.4379 205.827 51.3685 205.91 51.0357L207.506 44.9885C207.562 44.8082 207.659 44.725 207.77 44.725H208.533C208.672 44.725 208.755 44.8221 208.755 44.9608C208.755 44.9885 208.755 45.0162 208.741 45.0578Z" fill="#623F99"></path><path d="M211.364 43.5044H210.656C210.504 43.5044 210.379 43.3796 210.379 43.2271V42.1175C210.379 41.9649 210.504 41.8401 210.656 41.8401H211.364C211.517 41.8401 211.642 41.9649 211.642 42.1175V43.2271C211.642 43.3796 211.517 43.5044 211.364 43.5044ZM211.336 52.3533H210.67C210.518 52.3533 210.393 52.2284 210.393 52.0759V45.0024C210.393 44.8498 210.518 44.725 210.67 44.725H211.336C211.489 44.725 211.614 44.8498 211.614 45.0024V52.0759C211.614 52.2284 211.489 52.3533 211.336 52.3533Z" fill="#623F99"></path><path d="M219.229 52.3532H218.563C218.41 52.3532 218.285 52.2284 218.285 52.0758V47.5127C218.285 46.1119 217.814 45.6819 216.759 45.6819C216.176 45.6819 215.524 45.9038 214.885 46.2228V52.0758C214.885 52.2145 214.76 52.3532 214.608 52.3532H213.928C213.789 52.3532 213.664 52.2284 213.664 52.0758V45.0023C213.664 44.8497 213.775 44.7249 213.928 44.7249H214.622C214.774 44.7249 214.885 44.8497 214.885 45.0023V45.2658C215.649 44.8359 216.273 44.6278 217.092 44.6278C218.757 44.6278 219.507 45.668 219.507 47.5127V52.0758C219.507 52.2284 219.382 52.3532 219.229 52.3532Z" fill="#623F99"></path><path d="M227.458 45.6542L226.959 45.7513C227.208 46.0149 227.43 46.4309 227.43 47.1799V47.2909C227.43 48.8165 226.487 49.6626 224.35 49.6626C223.614 49.6626 223.142 49.5516 222.74 49.3852C222.504 49.4961 222.393 49.6487 222.393 49.8567C222.393 50.0925 222.504 50.2173 222.823 50.3006L224.891 50.8276C226.251 51.1744 227.555 51.5627 227.555 52.8664V52.9774C227.555 54.3089 226.667 55.1272 224.391 55.1272C222.115 55.1272 221.199 54.2811 221.199 52.9219V52.7971C221.199 52.0204 221.616 51.3824 222.074 51.0357L221.976 50.994C221.532 50.7999 221.338 50.3422 221.338 49.9122V49.8983C221.338 49.5239 221.518 49.1216 221.907 48.8997C221.477 48.4975 221.269 47.9982 221.269 47.2909V47.1799C221.269 45.9455 221.963 44.725 224.35 44.725H227.389C227.555 44.725 227.708 44.8637 227.708 45.0301V45.3907C227.708 45.571 227.611 45.6265 227.458 45.6542ZM226.334 52.8664C226.334 52.3255 225.89 52.1036 224.641 51.7846L223.073 51.3824C222.67 51.7291 222.393 52.0759 222.393 52.7971V52.9219C222.393 53.6986 222.851 54.1841 224.391 54.1841C225.932 54.1841 226.334 53.7402 226.334 52.9774V52.8664ZM226.223 47.1799C226.223 46.3477 225.848 45.6958 224.35 45.6958C222.851 45.6958 222.476 46.4032 222.476 47.1799V47.2909C222.476 47.9011 222.754 48.7056 224.35 48.7056C225.848 48.7056 226.223 48.123 226.223 47.2909V47.1799Z" fill="#623F99"></path></g><defs><clipPath id="clip0_718_638"><rect width="234" height="80" fill="white"></rect></clipPath></defs></svg>